<?xml version="1.0" standalone="no"?>
<!DOCTYPE svg PUBLIC "-//W3C//DTD SVG 20010904//EN"
 "http://www.w3.org/TR/2001/REC-SVG-20010904/DTD/svg10.dtd">
<svg version="1.0" xmlns="http://www.w3.org/2000/svg"
 width="55.000000pt" height="65.000000pt" viewBox="0 0 55.000000 65.000000"
 preserveAspectRatio="xMidYMid meet">

<g transform="translate(0.000000,65.000000) scale(0.100000,-0.100000)"
fill="#000000" stroke="none">
<path d="M102 635 c-35 -7 -68 -17 -73 -22 -10 -10 -22 -142 -18 -208 2 -50 2
-108 0 -160 -4 -72 7 -197 17 -207 20 -20 152 -38 200 -27 31 7 61 7 93 0 46
-10 167 4 198 23 7 4 11 33 10 69 0 34 4 76 9 94 7 22 6 46 -2 80 -10 38 -10
58 0 96 8 32 9 58 3 80 -5 17 -9 57 -9 88 0 60 -12 80 -53 84 -12 2 -41 8 -63
14 -30 8 -56 8 -91 1 -34 -8 -63 -8 -94 -1 -51 12 -45 12 -127 -4z m137 -25
c22 -6 49 -6 80 1 35 8 63 8 116 -3 l69 -14 3 -70 c2 -38 4 -87 3 -109 0 -22
0 -67 0 -100 1 -100 1 -117 -3 -189 l-3 -70 -64 -14 c-50 -11 -77 -12 -115 -5
-34 7 -66 7 -100 1 -38 -8 -65 -7 -115 4 l-65 14 -3 70 c-3 67 -3 83 -3 199 0
116 0 132 3 199 l3 70 50 12 c65 15 102 16 144 4z"/>
<path d="M80 325 l0 -245 195 0 195 0 0 245 0 245 -195 0 -195 0 0 -245z m100
170 l0 -55 -35 0 -35 0 0 55 0 55 35 0 35 0 0 -55z m260 0 l0 -55 -115 0 -115
0 0 55 0 55 115 0 115 0 0 -55z m-260 -110 c0 -33 -2 -35 -35 -35 -33 0 -35 2
-35 35 0 33 2 35 35 35 33 0 35 -2 35 -35z m260 0 l0 -35 -115 0 -115 0 0 35
0 35 115 0 115 0 0 -35z m-260 -170 l0 -115 -35 0 -35 0 0 115 0 115 35 0 35
0 0 -115z m158 -2 l3 -113 -66 0 -65 0 0 108 c0 60 3 112 7 116 4 4 32 6 63 4
l55 -3 3 -112z m102 2 l0 -115 -35 0 -35 0 0 115 0 115 35 0 35 0 0 -115z"/>
</g>
</svg>
