<?xml version="1.0" standalone="no"?>
<!DOCTYPE svg PUBLIC "-//W3C//DTD SVG 20010904//EN"
 "http://www.w3.org/TR/2001/REC-SVG-20010904/DTD/svg10.dtd">
<svg version="1.0" xmlns="http://www.w3.org/2000/svg"
 width="65.000000pt" height="65.000000pt" viewBox="0 0 65.000000 65.000000"
 preserveAspectRatio="xMidYMid meet">

<g transform="translate(0.000000,65.000000) scale(0.100000,-0.100000)"
fill="#000000" stroke="none">
<path d="M220 634 c-87 -32 -142 -82 -191 -174 -20 -38 -24 -59 -24 -135 0
-79 4 -97 28 -142 34 -66 84 -116 150 -150 45 -24 63 -28 142 -28 79 0 97 4
142 28 66 34 116 84 150 150 24 45 28 63 28 142 0 79 -4 97 -28 142 -59 112
-154 174 -277 180 -52 2 -89 -2 -120 -13z m238 -45 c61 -30 101 -71 138 -139
29 -54 27 -200 -4 -257 -96 -181 -334 -220 -477 -78 -88 89 -112 228 -57 336
l27 54 120 5 c150 6 160 24 16 28 -93 2 -102 4 -85 17 13 10 46 14 107 15 100
0 119 17 25 22 -57 3 -61 4 -38 15 14 6 57 12 96 12 60 1 80 -4 132 -30z"/>
<path d="M135 456 c9 -13 44 -43 78 -67 34 -24 72 -55 85 -68 22 -24 24 -24
50 -9 15 8 51 23 80 32 32 11 52 23 52 33 0 8 -6 13 -12 11 -86 -32 -122 -39
-142 -30 -11 6 -31 14 -43 17 -35 10 -27 25 12 25 19 0 35 5 35 10 0 6 -26 10
-57 10 -34 1 -66 7 -77 15 -17 13 -11 14 54 17 48 2 75 7 78 16 3 9 -22 12
-102 12 l-106 0 15 -24z"/>
</g>
</svg>
