<?xml version="1.0" standalone="no"?>
<!DOCTYPE svg PUBLIC "-//W3C//DTD SVG 20010904//EN"
 "http://www.w3.org/TR/2001/REC-SVG-20010904/DTD/svg10.dtd">
<svg version="1.0" xmlns="http://www.w3.org/2000/svg"
 width="65.000000pt" height="65.000000pt" viewBox="0 0 65.000000 65.000000"
 preserveAspectRatio="xMidYMid meet">

<g transform="translate(0.000000,65.000000) scale(0.100000,-0.100000)"
fill="#000000" stroke="none">
<path d="M220 634 c-87 -32 -142 -82 -191 -174 -20 -38 -24 -59 -24 -135 0
-79 4 -97 28 -142 34 -66 84 -116 150 -150 45 -24 63 -28 142 -28 79 0 97 4
142 28 66 34 116 84 150 150 24 45 28 63 28 142 0 79 -4 97 -28 142 -59 112
-154 174 -277 180 -52 2 -89 -2 -120 -13z m238 -45 c61 -30 101 -71 138 -139
29 -54 27 -200 -4 -257 -96 -181 -334 -220 -477 -78 -57 58 -85 126 -85 210 1
119 58 212 162 264 51 26 73 31 133 31 60 0 82 -5 133 -31z"/>
<path d="M305 467 c-3 -7 -5 -54 -3 -103 3 -81 5 -89 23 -89 19 0 20 7 20 100
0 87 -2 100 -18 103 -9 2 -19 -3 -22 -11z"/>
<path d="M302 198 c2 -15 10 -23 23 -23 13 0 21 8 23 23 3 18 -1 22 -23 22
-22 0 -26 -4 -23 -22z"/>
</g>
</svg>
