<?xml version="1.0" standalone="no"?>
<!DOCTYPE svg PUBLIC "-//W3C//DTD SVG 20010904//EN"
 "http://www.w3.org/TR/2001/REC-SVG-20010904/DTD/svg10.dtd">
<svg version="1.0" xmlns="http://www.w3.org/2000/svg"
 width="63.000000pt" height="65.000000pt" viewBox="0 0 63.000000 65.000000"
 preserveAspectRatio="xMidYMid meet">

<g transform="translate(0.000000,65.000000) scale(0.100000,-0.100000)"
fill="#000000" stroke="none">
<path d="M31 634 c-43 -18 -30 -41 13 -24 15 5 51 10 81 10 41 0 60 -5 82 -24
15 -12 42 -27 58 -33 58 -18 78 -97 51 -201 -11 -44 -11 -54 0 -63 21 -17 17
-47 -10 -74 -14 -13 -28 -35 -31 -47 -19 -61 -103 -148 -144 -148 -9 0 -39 18
-68 39 -47 36 -63 41 -63 20 0 -15 108 -89 129 -89 27 0 105 54 131 90 11 16
27 44 36 62 8 18 26 49 40 68 19 26 24 42 19 60 -8 26 -8 42 -3 155 3 81 -14
123 -59 144 -32 15 -45 23 -88 51 -37 24 -124 26 -174 4z"/>
<path d="M222 503 c-15 -28 -82 -53 -140 -53 -45 0 -94 -21 -81 -34 12 -12
174 16 206 35 l33 21 15 -36 c8 -19 15 -44 15 -55 0 -26 18 -37 26 -16 9 23
-14 97 -40 130 -23 28 -23 28 -34 8z"/>
<path d="M508 417 c-87 -65 -115 -184 -68 -282 22 -45 88 -105 117 -105 24 0
14 17 -27 44 -66 44 -103 141 -80 213 16 50 54 99 91 118 16 9 29 22 29 30 0
22 -14 18 -62 -18z"/>
<path d="M546 359 c-81 -63 -73 -209 14 -254 43 -22 43 -6 1 35 -65 64 -62
150 8 199 17 12 31 27 31 32 0 16 -26 10 -54 -12z"/>
<path d="M586 297 c-33 -33 -35 -88 -6 -117 21 -21 32 -24 44 -13 4 4 -3 15
-15 24 -29 22 -28 67 1 91 17 14 20 22 12 30 -7 7 -18 3 -36 -15z"/>
<path d="M33 284 c-7 -18 17 -38 31 -24 11 11 1 40 -14 40 -6 0 -13 -7 -17
-16z"/>
<path d="M193 284 c-8 -21 13 -42 28 -27 13 13 5 43 -11 43 -6 0 -13 -7 -17
-16z"/>
</g>
</svg>
