<?xml version="1.0" standalone="no"?>
<!DOCTYPE svg PUBLIC "-//W3C//DTD SVG 20010904//EN"
 "http://www.w3.org/TR/2001/REC-SVG-20010904/DTD/svg10.dtd">
<svg version="1.0" xmlns="http://www.w3.org/2000/svg"
 width="65.000000pt" height="65.000000pt" viewBox="0 0 65.000000 65.000000"
 preserveAspectRatio="xMidYMid meet">

<g transform="translate(0.000000,65.000000) scale(0.100000,-0.100000)"
fill="#000000" stroke="none">
<path d="M240 641 c-92 -30 -163 -90 -207 -174 -24 -45 -28 -63 -28 -142 0
-79 4 -97 28 -142 34 -66 84 -116 150 -150 45 -24 63 -28 142 -28 79 0 97 4
142 28 66 34 116 84 150 150 24 45 28 63 28 142 0 79 -4 97 -28 142 -59 113
-154 174 -277 179 -41 2 -86 0 -100 -5z m206 -45 c60 -28 115 -80 146 -139 19
-35 23 -58 23 -132 0 -102 -17 -147 -80 -210 -63 -63 -108 -80 -210 -80 -102
0 -147 17 -210 80 -63 63 -80 108 -80 210 0 102 17 147 82 211 84 84 223 110
329 60z"/>
<path d="M292 558 c-7 -7 -12 -23 -12 -37 0 -17 -16 -40 -48 -70 -45 -43 -92
-101 -92 -115 0 -17 30 -3 45 22 9 15 37 45 62 67 25 23 50 57 57 79 12 35 15
37 24 20 7 -14 5 -33 -6 -68 -15 -46 -15 -49 3 -62 11 -8 43 -14 77 -14 45 0
58 -3 58 -15 0 -8 6 -24 12 -35 10 -15 10 -22 1 -31 -9 -9 -9 -16 0 -31 10
-15 9 -21 -4 -28 -10 -6 -15 -18 -12 -33 4 -19 0 -26 -19 -30 -41 -12 -161 -7
-223 8 -75 18 -75 18 -75 2 0 -33 219 -60 302 -37 32 9 39 17 50 53 16 56 19
116 6 147 -23 55 -23 55 -92 58 -59 3 -67 5 -61 20 4 9 10 38 12 63 5 40 2 48
-18 63 -28 19 -31 20 -47 4z"/>
</g>
</svg>
